<svg xmlns="http://www.w3.org/2000/svg" width="39.814" height="21.843" viewBox="0 0 39.814 21.843">
  <g id="Group_1409" data-name="Group 1409" transform="translate(-1806 8076)">
    <g id="Group_1404" data-name="Group 1404" transform="translate(1806 -8076)">
      <path id="Path_2960" data-name="Path 2960" d="M11.123.495a10.932,10.932,0,1,0,7.719,3.2,10.921,10.921,0,0,0-7.719-3.2Zm0,19.96A9.051,9.051,0,1,1,17.511,17.8,9.04,9.04,0,0,1,11.123,20.455Z" transform="translate(-0.202 -0.495)" fill="#b3b4b5"/>
      <path id="Path_2961" data-name="Path 2961" d="M12.556,5.149A7.711,7.711,0,1,0,18,7.405,7.7,7.7,0,0,0,12.556,5.149Zm2.712,6.244-.063.162H13.289v-.173a1.149,1.149,0,0,0-.176-.705.525.525,0,0,0-.437-.2.451.451,0,0,0-.386.154.717.717,0,0,0-.132.455.665.665,0,0,0,.142.449,1.79,1.79,0,0,0,.622.388A6.4,6.4,0,0,1,14.66,12.93a1.953,1.953,0,0,1,.594,1.521,2.033,2.033,0,0,1-.617,1.511,2.566,2.566,0,0,1-1.441.649v1.168H12.122V16.6a2.608,2.608,0,0,1-1.544-.7A2.294,2.294,0,0,1,9.9,14.081l0-.039.082-.158H11.83v.171a1.079,1.079,0,0,0,.251.77.823.823,0,0,0,.6.222.532.532,0,0,0,.421-.152.632.632,0,0,0,.145-.432.742.742,0,0,0-.148-.5,1.781,1.781,0,0,0-.614-.382,6.059,6.059,0,0,1-1.756-.976,1.967,1.967,0,0,1-.6-1.533,1.978,1.978,0,0,1,.584-1.5,2.758,2.758,0,0,1,1.408-.662V7.857H13.29V8.934A2.7,2.7,0,0,1,14.7,9.7a2.412,2.412,0,0,1,.568,1.659Z" transform="translate(-1.639 -1.932)" fill="#b3b4b5"/>
    </g>
    <path id="Subtraction_1" data-name="Subtraction 1" d="M7.229,21.842a10.916,10.916,0,0,1-7.1-2.626,13.548,13.548,0,0,0,1.042-1.588,9.04,9.04,0,1,0-.1-13.322A13.548,13.548,0,0,0,0,2.736,10.921,10.921,0,1,1,7.229,21.842Zm0-3.221a7.7,7.7,0,0,1-5.441-2.25,13.389,13.389,0,0,0,1.087-5.313A13.376,13.376,0,0,0,1.7,5.553,7.7,7.7,0,1,1,7.229,18.621ZM4.657,11.952l-.082.158,0,.039a2.3,2.3,0,0,0,.677,1.823,2.618,2.618,0,0,0,1.544.7v1.175H7.864V14.678a2.551,2.551,0,0,0,1.442-.649,2.041,2.041,0,0,0,.617-1.511A1.958,1.958,0,0,0,9.329,11,6.392,6.392,0,0,0,7.592,9.987,1.771,1.771,0,0,1,6.97,9.6a.663.663,0,0,1-.142-.449A.72.72,0,0,1,6.959,8.7.45.45,0,0,1,7.3,8.539l.045,0h.023a.528.528,0,0,1,.22.048.536.536,0,0,1,.194.154,1.144,1.144,0,0,1,.176.705v.174H9.875l.063-.162,0-.031a2.4,2.4,0,0,0-.567-1.659A2.7,2.7,0,0,0,7.96,7V5.925H6.793v1.05a2.752,2.752,0,0,0-1.409.663,2.016,2.016,0,0,0-.452.689,1.988,1.988,0,0,0-.132.814,1.968,1.968,0,0,0,.131.832,2,2,0,0,0,.467.7,6.073,6.073,0,0,0,1.757.976,1.766,1.766,0,0,1,.613.381.737.737,0,0,1,.147.5.631.631,0,0,1-.144.432.537.537,0,0,1-.193.122.522.522,0,0,1-.181.032l-.047,0H7.313a.82.82,0,0,1-.562-.223,1.07,1.07,0,0,1-.251-.77v-.171Z" transform="translate(1827.662 -8076)" fill="#b3b4b5"/>
  </g>
</svg>
