<svg xmlns="http://www.w3.org/2000/svg" width="39.964" height="32.063" viewBox="0 0 39.964 32.063">
  <g id="Group_1408" data-name="Group 1408" transform="translate(-1877 8034)">
    <g id="Group_1405" data-name="Group 1405" transform="translate(1877 -8034.292)">
      <path id="Path_2962" data-name="Path 2962" d="M8.687,5.981h7a16.644,16.644,0,0,1,2.781-4.094A.889.889,0,0,0,18.675.874a.935.935,0,0,0-.862-.581A5.414,5.414,0,0,0,14.476,1.38a3.457,3.457,0,0,1-2.288.788A3.457,3.457,0,0,1,9.9,1.38,5.414,5.414,0,0,0,6.562.293.935.935,0,0,0,5.7.874a.889.889,0,0,0,.206,1.013,16.645,16.645,0,0,1,2.78,4.094Z" fill="#b3b4b5"/>
      <path id="Path_2966" data-name="Path 2966" d="M8.687,5.981h7a16.644,16.644,0,0,1,2.781-4.094A.889.889,0,0,0,18.675.874a.935.935,0,0,0-.862-.581A5.414,5.414,0,0,0,14.476,1.38a3.457,3.457,0,0,1-2.288.788A3.457,3.457,0,0,1,9.9,1.38,5.414,5.414,0,0,0,6.562.293.935.935,0,0,0,5.7.874a.889.889,0,0,0,.206,1.013,16.645,16.645,0,0,1,2.78,4.094Z" transform="translate(15)" fill="#b3b4b5"/>
      <path id="Subtraction_2" data-name="Subtraction 2" d="M-1855.3,8058.79c-.009,0-.019,0-.02,0a.162.162,0,0,1,.061-.016c-.1-.019-.542-.043-2.119-.043h-5.092a7.91,7.91,0,0,0,1.491-5.934,2.8,2.8,0,0,0,1.165-1.09,2.811,2.811,0,0,0,.346-1.9,2.826,2.826,0,0,0-.959-1.671,2.8,2.8,0,0,0-1.8-.657h-.01a.94.94,0,0,1-.522-.158.948.948,0,0,1-.346-.421.938.938,0,0,1-.053-.542.938.938,0,0,1,.257-.479.923.923,0,0,1,.48-.257.919.919,0,0,1,.184-.018.941.941,0,0,1,.358.071.953.953,0,0,1,.421.346.933.933,0,0,1,.158.522.94.94,0,0,0,.285.644.945.945,0,0,0,.652.263.942.942,0,0,0,.654-.263.94.94,0,0,0,.285-.644,2.8,2.8,0,0,0-.518-1.619,2.793,2.793,0,0,0-1.356-1.024v-1.111a.932.932,0,0,0-.285-.644.948.948,0,0,0-.651-.263.945.945,0,0,0-.654.263.94.94,0,0,0-.285.644v1.111a2.816,2.816,0,0,0-1.454,1.175,51.254,51.254,0,0,0-2.932-4.373,7.948,7.948,0,0,0,2.454-4.536h-.88a.927.927,0,0,1-.643-.286.939.939,0,0,1-.265-.651.938.938,0,0,1,.265-.654.933.933,0,0,1,.643-.285h7.5a.949.949,0,0,1,.643.285.938.938,0,0,1,.265.654.939.939,0,0,1-.265.651.938.938,0,0,1-.643.286h-.88c.307,2.464,1.924,4.048,3.636,5.726a21.88,21.88,0,0,1,4.352,5.587,12.328,12.328,0,0,1,1.9,6.75c-.137,1.807-.433,3.471-2.535,3.986a11.758,11.758,0,0,1-2.253.448c-.163.014-.363.032-.65.063-.151.017-.272.032-.339.043.015,0,.022.006.022.008S-1855.273,8058.79-1855.3,8058.79Zm-6.28-7.83h0c-.2-.487-.44-1.028-.718-1.607h.059a.937.937,0,0,1,.522.158.955.955,0,0,1,.346.421.946.946,0,0,1,.052.542.943.943,0,0,1-.257.481l0,0Z" transform="translate(1889.425 -8026.436)" fill="#b3b4b5"/>
    </g>
    <path id="Path_2973" data-name="Path 2973" d="M18.694,15.456c-1.837-1.8-3.337-3.325-3.637-5.725h.881a.938.938,0,0,0,0-1.875h-7.5a.938.938,0,0,0,0,1.875h.881c-.3,2.4-1.8,3.925-3.637,5.725C3.019,18.062,0,21.024,0,27.793a4.665,4.665,0,0,0,4.688,4.5h12.36c3.7,0,1.187.14,2.458,0a12.505,12.505,0,0,0,2.9-.513c2.074-.507,2.4-2.138,2.535-3.987a12.27,12.27,0,0,0-1.9-6.749A21.853,21.853,0,0,0,18.694,15.456Zm-6.506,5.587a2.806,2.806,0,0,1,.938,5.452V27.6a.938.938,0,0,1-1.875,0V26.493a2.808,2.808,0,0,1-1.875-2.64.938.938,0,0,1,1.875,0,.938.938,0,1,0,.938-.937,2.806,2.806,0,0,1-.937-5.452v-1.11a.938.938,0,0,1,1.875,0v1.11A2.808,2.808,0,0,1,15,20.106a.938.938,0,0,1-1.875,0,.938.938,0,1,0-.937.938Z" transform="translate(1877 -8034.292)" fill="#b3b4b5"/>
  </g>
</svg>
