<svg id="Group_299" data-name="Group 299" xmlns="http://www.w3.org/2000/svg" width="46.667" height="56" viewBox="0 0 46.667 56">
  <path id="Polygon_86" data-name="Polygon 86" d="M37.47,0a8,8,0,0,1,6.86,3.884l9.2,15.333a8,8,0,0,1,0,8.232l-9.2,15.333a8,8,0,0,1-6.86,3.884H18.53a8,8,0,0,1-6.86-3.884L2.47,27.449a8,8,0,0,1,0-8.232l9.2-15.333A8,8,0,0,1,18.53,0Z" transform="translate(46.667 0) rotate(90)" fill="#ff5e00" opacity="0.16"/>
  <path id="Buy_BTN" data-name="Buy BTN" d="M.357,6.954l4.874,4.874a1.218,1.218,0,0,0,2.08-.861V7.311h8.548a1.218,1.218,0,0,0,0-2.437H7.311V1.219A1.218,1.218,0,0,0,5.231.357L.357,5.231A1.217,1.217,0,0,0,.357,6.954Zm0,0" transform="translate(17.102 30.406) rotate(-90)" fill="#ff6f00"/>
  <text id="Buy" transform="translate(14.667 41.928)" fill="#ff6f00" font-size="10" font-family="Roboto-Medium, Roboto" font-weight="500"><tspan x="0" y="0">Buy</tspan></text>
</svg>
