<svg xmlns="http://www.w3.org/2000/svg" xmlns:xlink="http://www.w3.org/1999/xlink" width="333" height="130" viewBox="0 0 333 130">
  <defs>
    <linearGradient id="linear-gradient" x1="0.853" y1="-0.18" x2="0.406" y2="1.207" gradientUnits="objectBoundingBox">
      <stop offset="0" stop-color="#0a2e65"/>
      <stop offset="1" stop-color="#172334"/>
    </linearGradient>
    <linearGradient id="linear-gradient-2" x1="0.853" y1="-0.18" x2="0.406" y2="1.207" gradientUnits="objectBoundingBox">
      <stop offset="0" stop-color="#65590a"/>
      <stop offset="1" stop-color="#342a17"/>
    </linearGradient>
    <clipPath id="clip-path">
      <rect id="Rectangle_133" data-name="Rectangle 133" width="333" height="130" rx="8" transform="translate(983 208)" fill="url(#linear-gradient)"/>
    </clipPath>
    <linearGradient id="linear-gradient-3" x1="-0.064" y1="0.544" x2="0.748" y2="0.409" gradientUnits="objectBoundingBox">
      <stop offset="0" stop-color="#746d07"/>
      <stop offset="1" stop-color="#573e0b"/>
    </linearGradient>
  </defs>
  <g id="Group_274" data-name="Group 274" transform="translate(-983 -208)">
    <rect id="Rectangle_132" data-name="Rectangle 132" width="333" height="130" rx="8" transform="translate(983 208)" fill="url(#linear-gradient-2)"/>
    <g id="Mask_Group_12" data-name="Mask Group 12" clip-path="url(#clip-path)">
      <path id="Path_9405" data-name="Path 9405" d="M125.632-4.622a13,13,0,0,1,11.26,6.5l26.25,45.5a13,13,0,0,1,0,12.993l-26.25,45.5a13,13,0,0,1-11.26,6.5L41.258,117A13,13,0,0,1,30,110.5L3.748,65A13,13,0,0,1,3.748,52L30,6.5A13,13,0,0,1,41.258,0Z" transform="translate(1176.672 258.151) rotate(-30)" opacity="0.52" fill="url(#linear-gradient-3)"/>
    </g>
  </g>
</svg>
