<svg xmlns="http://www.w3.org/2000/svg" width="40" height="40" viewBox="0 0 40 40">
  <g id="Group_270" data-name="Group 270" transform="translate(-28 -315)">
    <rect id="Rectangle_129" data-name="Rectangle 129" width="40" height="40" transform="translate(28 315)" fill="none"/>
    <g id="business-affiliate-network" transform="translate(37.284 324.871)">
      <g id="Layer_1_110_">
        <g id="Group_59" data-name="Group 59">
          <path id="Path_8932" data-name="Path 8932" d="M11.526,10.922l-1.26-1.191a1.847,1.847,0,0,0,.238-.894,1.882,1.882,0,1,0-.881,1.581l1.258,1.19A4.28,4.28,0,0,1,11.526,10.922Z" transform="translate(-3.783 -4.298)" fill="#3b4851"/>
          <path id="Path_8933" data-name="Path 8933" d="M28.636,7.385,30.31,4.568a1.848,1.848,0,1,0-.812-.474L27.829,6.9A4.182,4.182,0,0,1,28.636,7.385Z" transform="translate(-15.563 -0.911)" fill="#3b4851"/>
          <path id="Path_8934" data-name="Path 8934" d="M37.476,20.952a1.867,1.867,0,0,0-1.749,1.223l-2.326-.23c0,.018,0,.034,0,.052a4.284,4.284,0,0,1-.094.885l2.325.23a1.866,1.866,0,1,0,1.841-2.16Z" transform="translate(-18.628 -12.119)" fill="#3b4851"/>
          <path id="Path_8935" data-name="Path 8935" d="M25.753,34.741l-.52-2.273a4.259,4.259,0,0,1-.918.212l.521,2.273a1.863,1.863,0,1,0,.917-.212Z" transform="translate(-13.325 -18.559)" fill="#3b4851"/>
          <path id="Path_8936" data-name="Path 8936" d="M6.328,25.37l-2.9.97a1.866,1.866,0,1,0,.306,1.019c0-.043-.009-.083-.013-.125l2.905-.973A4.268,4.268,0,0,1,6.328,25.37Z" transform="translate(0 -14.589)" fill="#3b4851"/>
          <circle id="Ellipse_28" data-name="Ellipse 28" cx="3.205" cy="3.205" r="3.205" transform="translate(7.299 6.674)" fill="#3b4851"/>
        </g>
      </g>
    </g>
  </g>
</svg>
