<svg xmlns="http://www.w3.org/2000/svg" width="40" height="40" fill="none" viewBox="0 0 40 40">
  <path fill="#F4F4F4" d="M17.027 16.495l-1.26-1.191c.154-.273.236-.58.238-.894a1.881 1.881 0 10-.881 1.58l1.258 1.19a4.28 4.28 0 01.645-.685zM22.357 16.345l1.674-2.817a1.848 1.848 0 10-.812-.474l-1.67 2.806c.287.13.558.293.808.485zM28.132 18.704a1.867 1.867 0 00-1.75 1.223l-2.325-.23v.052c0 .298-.032.594-.094.885l2.325.23a1.866 1.866 0 101.84-2.16h.004zM21.712 26.053l-.52-2.273a4.26 4.26 0 01-.918.212l.52 2.273a1.863 1.863 0 10.918-.212zM15.612 20.652l-2.9.97a1.866 1.866 0 10.306 1.019c0-.043-.01-.083-.013-.125l2.905-.973a4.27 4.27 0 01-.298-.891z"/>
  <path fill="#F8C02D" d="M19.788 22.955a3.205 3.205 0 100-6.41 3.205 3.205 0 000 6.41z"/>
</svg>
