<svg xmlns="http://www.w3.org/2000/svg" width="32" height="29.94" viewBox="0 0 32 29.94">
  <g id="Group_1403" data-name="Group 1403" transform="translate(0 -0.323)">
    <path id="Path_2949" data-name="Path 2949" d="M0,4.014c0,2.462,4.244,3.75,8.437,3.75s8.437-1.288,8.437-3.75C16.875-.907,0-.907,0,4.014Z" fill="#b3b4b5"/>
    <path id="Path_2950" data-name="Path 2950" d="M8.437,9.639C5.4,9.639,0,8.75,0,5.893V7.764c0,2.456,4.237,3.75,8.437,3.75s8.437-1.294,8.437-3.75V5.893C16.875,8.748,11.5,9.639,8.437,9.639Z" fill="#b3b4b5"/>
    <path id="Path_2951" data-name="Path 2951" d="M8.437,17.139C4.237,17.139,0,15.846,0,13.393v1.875c0,2.456,4.237,3.75,8.437,3.75s8.437-1.294,8.437-3.75V13.393C16.875,15.846,12.637,17.139,8.437,17.139Z" fill="#b3b4b5"/>
    <path id="Path_2952" data-name="Path 2952" d="M8.437,20.893c-4.2,0-8.437-1.3-8.437-3.754v1.875c0,2.456,4.237,3.75,8.437,3.75s8.437-1.294,8.437-3.75V17.139C16.875,19.593,12.637,20.893,8.437,20.893Z" fill="#b3b4b5"/>
    <path id="Path_2953" data-name="Path 2953" d="M8.437,24.639C4.237,24.639,0,23.346,0,20.893v1.875c0,2.456,4.237,3.75,8.437,3.75s8.437-1.294,8.437-3.75V20.893C16.875,23.346,12.637,24.639,8.437,24.639Z" fill="#b3b4b5"/>
    <path id="Path_2954" data-name="Path 2954" d="M8.437,28.393c-4.2,0-8.437-1.3-8.437-3.754v1.875c0,2.456,4.237,3.75,8.437,3.75s8.437-1.294,8.437-3.75V24.639C16.875,27.093,12.637,28.393,8.437,28.393Z" fill="#b3b4b5"/>
    <path id="Path_2955" data-name="Path 2955" d="M8.437,13.393c-4.2,0-8.437-1.3-8.437-3.754v1.875c0,2.861,5.4,3.75,8.437,3.75,3.637,0,7.294-.975,8.212-2.812a1.979,1.979,0,0,0,.225-.937V9.639C16.875,12.093,12.637,13.393,8.437,13.393Z" fill="#b3b4b5"/>
    <path id="Path_2956" data-name="Path 2956" d="M23.437,28.393a17.585,17.585,0,0,1-4.883-.658,4.166,4.166,0,0,1-.937,1.558,16.3,16.3,0,0,0,5.821.967c4.2,0,8.562-1.294,8.562-3.75V24.639C32,27.093,27.637,28.393,23.437,28.393Z" fill="#b3b4b5"/>
    <path id="Path_2957" data-name="Path 2957" d="M23.437,20.893a17.85,17.85,0,0,1-4.687-.6v1.881a17.9,17.9,0,0,0,4.687.595c4.2,0,8.562-1.294,8.562-3.75v-1.88C32,20,26.472,20.893,23.437,20.893Z" fill="#b3b4b5"/>
    <path id="Path_2958" data-name="Path 2958" d="M23.437,24.639a17.656,17.656,0,0,1-4.687-.617v1.884a17.623,17.623,0,0,0,4.687.608c3.06,0,8.562-.892,8.562-3.75V20.893C32,23.346,27.637,24.639,23.437,24.639Z" fill="#b3b4b5"/>
    <path id="Path_2959" data-name="Path 2959" d="M18.75,12.153v6.24a17.469,17.469,0,0,0,4.687.622c4.193,0,8.562-1.288,8.562-3.75C32,11.837,23.715,10.8,18.75,12.153Z" fill="#b3b4b5"/>
  </g>
</svg>
