<svg xmlns="http://www.w3.org/2000/svg" width="40" height="40" viewBox="0 0 40 40">
  <g id="Group_269" data-name="Group 269" transform="translate(-28 -315)">
    <rect id="Rectangle_129" data-name="Rectangle 129" width="40" height="40" transform="translate(28 315)" fill="none"/>
    <g id="coin-stack" transform="translate(39 327)">
      <g id="Group_58" data-name="Group 58">
        <path id="Path_8924" data-name="Path 8924" d="M5.325,117.362a11.416,11.416,0,0,0,1.484-.1V112.1a11.421,11.421,0,0,0-1.484-.1c-2.94,0-5.324,1.081-5.324,2.415v.524C0,116.281,2.385,117.362,5.325,117.362Z" transform="translate(-0.001 -107.919)" fill="#3b4851"/>
        <path id="Path_8925" data-name="Path 8925" d="M5.325,216.607a11.43,11.43,0,0,0,1.484-.1V215a11.419,11.419,0,0,1-1.484.1c-2.567,0-4.709-.824-5.212-1.92a1.178,1.178,0,0,0-.112.495v.524C0,215.526,2.385,216.607,5.325,216.607Z" transform="translate(-0.001 -204.468)" fill="#3b4851"/>
        <path id="Path_8926" data-name="Path 8926" d="M6.808,274.2v-.118a11.417,11.417,0,0,1-1.484.1c-2.567,0-4.709-.824-5.212-1.92a1.177,1.177,0,0,0-.112.495v.524c0,1.334,2.384,2.415,5.324,2.415a11.311,11.311,0,0,0,1.683-.123,1.9,1.9,0,0,1-.2-.844Z" transform="translate(0 -260.856)" fill="#3b4851"/>
        <path id="Path_8927" data-name="Path 8927" d="M173.563,22.379c-2.94,0-5.324,1.081-5.324,2.415v.524c0,1.334,2.384,2.415,5.324,2.415s5.324-1.081,5.324-2.415v-.524C178.887,23.46,176.5,22.379,173.563,22.379Z" transform="translate(-160.562 -22.379)" fill="#3b4851"/>
        <path id="Path_8928" data-name="Path 8928" d="M173.563,125.464c-2.567,0-4.709-.824-5.212-1.92a1.177,1.177,0,0,0-.112.495v.524c0,1.334,2.384,2.415,5.324,2.415s5.324-1.081,5.324-2.415v-.524a1.177,1.177,0,0,0-.112-.495C178.272,124.64,176.13,125.464,173.563,125.464Z" transform="translate(-160.562 -118.928)" fill="#3b4851"/>
        <path id="Path_8929" data-name="Path 8929" d="M173.563,184.548c-2.567,0-4.709-.824-5.212-1.92a1.177,1.177,0,0,0-.112.495v.524c0,1.334,2.384,2.415,5.324,2.415s5.324-1.081,5.324-2.415v-.524a1.177,1.177,0,0,0-.112-.495C178.272,183.724,176.13,184.548,173.563,184.548Z" transform="translate(-160.562 -175.316)" fill="#3b4851"/>
        <path id="Path_8930" data-name="Path 8930" d="M173.563,246.821c-2.567,0-4.709-.824-5.212-1.92a1.178,1.178,0,0,0-.112.495v.524c0,1.334,2.384,2.415,5.324,2.415s5.324-1.081,5.324-2.415V245.4a1.177,1.177,0,0,0-.112-.495C178.272,246,176.13,246.821,173.563,246.821Z" transform="translate(-160.562 -234.747)" fill="#3b4851"/>
        <path id="Path_8931" data-name="Path 8931" d="M173.563,305.9c-2.567,0-4.709-.824-5.212-1.92a1.178,1.178,0,0,0-.112.495V305c0,1.334,2.384,2.415,5.324,2.415s5.324-1.081,5.324-2.415v-.524a1.178,1.178,0,0,0-.112-.495C178.272,305.08,176.13,305.9,173.563,305.9Z" transform="translate(-160.562 -291.134)" fill="#3b4851"/>
      </g>
    </g>
  </g>
</svg>
