<svg xmlns="http://www.w3.org/2000/svg" width="40" height="40" fill="none" viewBox="0 0 40 40">
  <path fill="#EDAC01" d="M15.324 21.443c.496-.001.992-.034 1.484-.1v-5.162a11.402 11.402 0 00-1.484-.1c-2.94 0-5.324 1.081-5.324 2.415v.524c-.001 1.342 2.384 2.423 5.324 2.423z"/>
  <path fill="#E9E9EA" d="M15.324 24.139c.496-.001.992-.035 1.484-.1v-1.507c-.492.066-.988.099-1.484.1-2.567 0-4.709-.824-5.212-1.92a1.177 1.177 0 00-.112.495v.524c-.001 1.327 2.384 2.408 5.324 2.408zM16.808 25.344v-.118c-.492.065-.988.099-1.484.1-2.567 0-4.709-.824-5.212-1.92A1.177 1.177 0 0010 23.9v.524c0 1.334 2.384 2.415 5.324 2.415.563 0 1.126-.04 1.683-.123a1.9 1.9 0 01-.2-.844l.001-.53z"/>
  <path fill="#EDAC01" d="M23.001 12c-2.94 0-5.324 1.081-5.324 2.415v.524c0 1.334 2.384 2.415 5.324 2.415s5.324-1.081 5.324-2.415v-.524c0-1.334-2.387-2.415-5.324-2.415z"/>
  <path fill="#E9E9EA" d="M23.001 18.536c-2.567 0-4.709-.824-5.212-1.92a1.177 1.177 0 00-.112.495v.524c0 1.334 2.384 2.415 5.324 2.415s5.324-1.08 5.324-2.415v-.524c0-.171-.04-.34-.112-.495-.503 1.096-2.645 1.92-5.212 1.92z"/>
  <path fill="#E9E9EA" d="M23.001 21.232c-2.567 0-4.709-.824-5.212-1.92a1.177 1.177 0 00-.112.495v.524c0 1.334 2.384 2.415 5.324 2.415s5.324-1.081 5.324-2.415v-.524c0-.171-.04-.34-.112-.495-.503 1.096-2.645 1.92-5.212 1.92z"/>
  <path fill="#E9E9EA" d="M23.001 24.074c-2.567 0-4.709-.824-5.212-1.92a1.177 1.177 0 00-.112.495v.524c0 1.334 2.384 2.415 5.324 2.415s5.324-1.081 5.324-2.415v-.52c0-.171-.04-.34-.112-.495-.503 1.095-2.645 1.916-5.212 1.916z"/>
  <path fill="#E9E9EA" d="M23.001 26.766c-2.567 0-4.709-.824-5.212-1.92a1.177 1.177 0 00-.112.495v.525c0 1.334 2.384 2.415 5.324 2.415s5.324-1.08 5.324-2.415v-.524c0-.171-.04-.34-.112-.495-.503 1.1-2.645 1.92-5.212 1.92z"/>
</svg>
