<svg id="list" xmlns="http://www.w3.org/2000/svg" width="11.207" height="14.625" viewBox="0 0 11.207 14.625">
  <g id="Group_303" data-name="Group 303">
    <path id="Path_9411" data-name="Path 9411" d="M70.556,0H60.3a.477.477,0,0,0-.477.477V14.148a.477.477,0,0,0,.477.477H70.556a.477.477,0,0,0,.477-.477V.477A.477.477,0,0,0,70.556,0ZM64.209.954H66.65v.614H64.209Zm3.955,10.7H62.7a.477.477,0,0,1,0-.954h5.468a.477.477,0,0,1,0,.954Zm0-3.085H62.7a.477.477,0,0,1,0-.954h5.468a.477.477,0,0,1,0,.954Zm0-3.085H62.7a.477.477,0,0,1,0-.954h5.468a.477.477,0,0,1,0,.954Z" transform="translate(-59.826)" fill="#0091ff"/>
  </g>
</svg>
