<svg id="Group_1410" data-name="Group 1410" xmlns="http://www.w3.org/2000/svg" width="28.009" height="28.009" viewBox="0 0 28.009 28.009">
  <path id="Path_2960" data-name="Path 2960" d="M14.207.495a14.019,14.019,0,1,0,9.9,4.106,14,14,0,0,0-9.9-4.106Zm0,25.6a11.606,11.606,0,1,1,8.192-3.4A11.593,11.593,0,0,1,14.207,26.09Z" transform="translate(-0.202 -0.495)" fill="#b3b4b5"/>
  <path id="Path_2961" data-name="Path 2961" d="M14.729,5.149a9.888,9.888,0,1,0,6.982,2.893A9.877,9.877,0,0,0,14.729,5.149Zm3.478,8.007-.081.207H15.67V13.14a1.473,1.473,0,0,0-.226-.9.673.673,0,0,0-.56-.26.578.578,0,0,0-.5.2.92.92,0,0,0-.169.583.853.853,0,0,0,.183.576,2.3,2.3,0,0,0,.8.5,8.207,8.207,0,0,1,2.228,1.3,2.5,2.5,0,0,1,.761,1.95,2.606,2.606,0,0,1-.792,1.938,3.29,3.29,0,0,1-1.848.832v1.5H14.173V19.838a3.345,3.345,0,0,1-1.98-.9,2.942,2.942,0,0,1-.869-2.338l.006-.051.105-.2H13.8v.219a1.384,1.384,0,0,0,.322.987,1.055,1.055,0,0,0,.769.285.683.683,0,0,0,.54-.2.811.811,0,0,0,.186-.554.951.951,0,0,0-.19-.64,2.284,2.284,0,0,0-.787-.489,7.77,7.77,0,0,1-2.252-1.252,2.522,2.522,0,0,1-.767-1.966,2.537,2.537,0,0,1,.749-1.929,3.537,3.537,0,0,1,1.806-.849V8.622h1.5V10a3.466,3.466,0,0,1,1.8.986,3.093,3.093,0,0,1,.729,2.127Z" transform="translate(-0.731 -1.024)" fill="#b3b4b5"/>
</svg>
