<svg xmlns="http://www.w3.org/2000/svg" width="18.575" height="20.263" viewBox="0 0 18.575 20.263">
  <g id="notification" transform="translate(0.001)">
    <path id="Path_8888" data-name="Path 8888" d="M138.067,450.533a3.171,3.171,0,0,0,3.1-2.533h-6.2a3.171,3.171,0,0,0,3.1,2.533Zm0,0" transform="translate(-129.625 -430.27)" fill="#333b41"/>
    <path id="Path_8889" data-name="Path 8889" d="M14.363,51.11h-.01a5.917,5.917,0,0,1-5.91-5.91,5.857,5.857,0,0,1,.565-2.5c-.186-.018-.374-.029-.565-.029a5.91,5.91,0,0,0-5.91,5.91v2.354A5.661,5.661,0,0,1,.516,55.265a1.477,1.477,0,0,0-.464,1.516A1.549,1.549,0,0,0,1.57,57.865H15.311a1.548,1.548,0,0,0,1.543-1.171,1.48,1.48,0,0,0-.5-1.445,5.618,5.618,0,0,1-1.987-4.139Zm0,0" transform="translate(0 -40.979)" fill="#333b41"/>
    <path id="Path_8890" data-name="Path 8890" d="M264.455,4.222A4.221,4.221,0,1,1,260.233,0,4.221,4.221,0,0,1,264.455,4.222Zm0,0" transform="translate(-245.881)" fill="#f9c02b"/>
  </g>
</svg>
