<svg id="Group_302" data-name="Group 302" xmlns="http://www.w3.org/2000/svg" width="46.667" height="53.341" viewBox="0 0 46.667 53.341">
  <path id="Path_9417" data-name="Path 9417" d="M36.141,0A8,8,0,0,1,43,3.884l9.2,15.333a8,8,0,0,1,0,8.232L43,42.783a8,8,0,0,1-6.86,3.884H17.2a8,8,0,0,1-6.86-3.884L1.14,27.449a8,8,0,0,1,0-8.232l9.2-15.333A8,8,0,0,1,17.2,0Z" transform="translate(46.667 0) rotate(90)" fill="#0090fe" opacity="0.18"/>
  <text id="Order" transform="translate(9.667 40.598)" fill="#0091ff" font-size="10" font-family="Roboto-Medium, Roboto" font-weight="500"><tspan x="0" y="0">Order</tspan></text>
  <g id="list" transform="translate(17.117 13.023)">
    <g id="Group_303" data-name="Group 303">
      <path id="Path_9411" data-name="Path 9411" d="M70.556,0H60.3a.477.477,0,0,0-.477.477V14.148a.477.477,0,0,0,.477.477H70.556a.477.477,0,0,0,.477-.477V.477A.477.477,0,0,0,70.556,0ZM64.209.954H66.65v.614H64.209Zm3.955,10.7H62.7a.477.477,0,0,1,0-.954h5.468a.477.477,0,0,1,0,.954Zm0-3.085H62.7a.477.477,0,0,1,0-.954h5.468a.477.477,0,0,1,0,.954Zm0-3.085H62.7a.477.477,0,0,1,0-.954h5.468a.477.477,0,0,1,0,.954Z" transform="translate(-59.826)" fill="#0091ff"/>
    </g>
  </g>
</svg>
