<svg xmlns="http://www.w3.org/2000/svg" width="33.333" height="40" viewBox="0 0 33.333 40">
  <g id="Group_17" data-name="Group 17" transform="translate(-1282.667 -132.072)">
    <path id="Polygon_85" data-name="Polygon 85" d="M25.47,0a8,8,0,0,1,6.86,3.884l5.2,8.667a8,8,0,0,1,0,8.232l-5.2,8.667a8,8,0,0,1-6.86,3.884H14.53a8,8,0,0,1-6.86-3.884l-5.2-8.667a8,8,0,0,1,0-8.232l5.2-8.667A8,8,0,0,1,14.53,0Z" transform="translate(1316 132.072) rotate(90)" fill="#333b41"/>
    <text id="A" transform="translate(1293 159)" fill="#fff" font-size="22" font-family="Roboto-Light, Roboto" font-weight="300" opacity="0.24"><tspan x="0" y="0">A</tspan></text>
  </g>
</svg>
