<svg xmlns="http://www.w3.org/2000/svg" width="28.669" height="31.207" viewBox="0 0 28.669 31.207">
  <g id="Subscribe" transform="translate(28.669) rotate(90)">
    <path id="Path_9395" data-name="Path 9395" d="M16.511.018c-.03,0-.055-.018-.086-.018H3.584A3.588,3.588,0,0,0,0,3.584V4.778a1.194,1.194,0,1,0,2.389,0V3.584A1.2,1.2,0,0,1,3.584,2.389H9.149l-.364.122A2.4,2.4,0,0,0,7.167,4.778V22.7H3.584A1.2,1.2,0,0,1,2.389,21.5V19.112a1.194,1.194,0,1,0-2.389,0V21.5a3.588,3.588,0,0,0,3.584,3.584H7.167V26.28a2.391,2.391,0,0,0,2.389,2.389,2.506,2.506,0,0,0,.761-.118l7.177-2.393a2.4,2.4,0,0,0,1.619-2.267V2.389a2.394,2.394,0,0,0-2.6-2.371Zm0,0" transform="translate(12.095 0)" fill="#3b4851"/>
    <path id="Path_9396" data-name="Path 9396" d="M11.627,5.641,7.283.385A.953.953,0,0,0,6.1.1a1.344,1.344,0,0,0-.67,1.214V5.256H1.086A1.217,1.217,0,0,0,0,6.57,1.217,1.217,0,0,0,1.086,7.884H5.43v3.942a1.344,1.344,0,0,0,.67,1.214.953.953,0,0,0,1.184-.285L11.627,7.5a1.514,1.514,0,0,0,0-1.858Zm0,0" transform="translate(0 5.586)" fill="#f1bb2c"/>
  </g>
</svg>
