<svg xmlns="http://www.w3.org/2000/svg" width="38.936" height="42.933" viewBox="0 0 38.936 42.933">
  <g id="Group_329" data-name="Group 329" transform="translate(-4.24 -4.901)">
    <g id="business-affiliate-network" transform="translate(0 15.629) rotate(-31)">
      <g id="Layer_1_110_" transform="translate(0 0)">
        <g id="Group_59" data-name="Group 59" transform="translate(0)">
          <path id="Path_8932" data-name="Path 8932" d="M7.321,1.054,5.384,2.885A2.839,2.839,0,0,1,5.749,4.26,2.893,2.893,0,1,1,4.395,1.829L6.33,0A6.581,6.581,0,0,0,7.321,1.054Z" transform="translate(3.674 12.262) rotate(31)" fill="#f1bb2c"/>
          <path id="Path_8933" data-name="Path 8933" d="M1.186,0,3.646,4.141A2.741,2.741,0,1,1,4.4,9.514,2.745,2.745,0,0,1,2.453,4.837L0,.709A6.145,6.145,0,0,0,1.186,0Z" transform="matrix(0.914, -0.407, 0.407, 0.914, 19.78, 18.359)" fill="#f1bb2c"/>
          <path id="Path_8934" data-name="Path 8934" d="M6.406,5.745A2.871,2.871,0,0,1,3.717,3.864L.14,4.217c0-.027,0-.053,0-.079A6.587,6.587,0,0,0,0,2.777l3.576-.353A2.869,2.869,0,1,1,6.406,5.745Z" transform="matrix(0.951, -0.309, 0.309, 0.951, 19.745, 9.994)" fill="#f1bb2c"/>
          <path id="Path_8935" data-name="Path 8935" d="M2.962,5.737l-.8,3.494A6.548,6.548,0,0,0,.751,8.905l.8-3.495a2.865,2.865,0,1,1,1.41.327Z" transform="translate(15.082 0)" fill="#f1bb2c"/>
          <path id="Path_8936" data-name="Path 8936" d="M9.73,5.934,5.277,4.442a2.868,2.868,0,1,1,.47-1.568c0,.066-.014.127-.02.192l4.467,1.5A6.562,6.562,0,0,0,9.73,5.934Z" transform="matrix(0.899, 0.438, -0.438, 0.899, 3.955, 1.649)" fill="#f1bb2c"/>
          <ellipse id="Ellipse_28" data-name="Ellipse 28" cx="4.928" cy="4.928" rx="4.928" ry="4.928" transform="translate(10.156 10.501)" fill="#f1bb2c"/>
        </g>
      </g>
    </g>
    <path id="Path_9402" data-name="Path 9402" d="M32.082,0,0,11.093l3.168,3.962,32.146-12Z" transform="translate(7.862 20.408)" fill="#5c4c0b"/>
    <path id="Path_9403" data-name="Path 9403" d="M1.069,0,24.582,13.777l-.425-1.609,2.044-.54,1.35,5.111-5.111,1.35-.54-2.044,1.633-.431L0,1.824Z" transform="translate(10.3 35.73) rotate(-48)" fill="#f1bb2c"/>
  </g>
</svg>
