<svg xmlns="http://www.w3.org/2000/svg" width="14.123" height="12.195" viewBox="0 0 14.123 12.195">
  <g id="visibility" transform="translate(0 -73.384)">
    <g id="Group_2213" data-name="Group 2213" transform="translate(0 74.667)">
      <g id="Group_2212" data-name="Group 2212" transform="translate(0 0)">
        <g id="Group_2216" data-name="Group 2216">
          <g id="invisible" transform="translate(0 -2.044)">
            <g id="Group_2215" data-name="Group 2215" transform="translate(0 0.761)">
              <g id="Group_2214" data-name="Group 2214">
                <path id="Path_12918" data-name="Path 12918" d="M5.491,3.812,7.513,5.834l.01-.106A1.927,1.927,0,0,0,5.6,3.8Z" transform="translate(1.463 0.049)" fill="#cad1dd"/>
                <path id="Path_12919" data-name="Path 12919" d="M6.113,3.126A3.21,3.21,0,0,1,9.322,6.335a3.159,3.159,0,0,1-.228,1.171l1.877,1.877a7.622,7.622,0,0,0,2.2-3.049A7.6,7.6,0,0,0,6.113,1.522a7.506,7.506,0,0,0-2.558.449L4.942,3.354A3.225,3.225,0,0,1,6.113,3.126Z" transform="translate(0.947 -0.559)" fill="#cad1dd"/>
                <path id="Path_12920" data-name="Path 12920" d="M.642,1.58,2.105,3.043l.292.292A7.6,7.6,0,0,0,0,6.538a7.591,7.591,0,0,0,7.06,4.814,7.525,7.525,0,0,0,2.814-.542l.273.273,1.871,1.874.818-.815L1.46.761ZM4.191,5.126l.992.992a2.034,2.034,0,0,0-.048.42A1.927,1.927,0,0,0,7.06,8.463a1.979,1.979,0,0,0,.417-.048l.992.992a3.157,3.157,0,0,1-1.409.34A3.188,3.188,0,0,1,4.191,5.126Z" transform="translate(0 -0.761)" fill="#cad1dd"/>
              </g>
            </g>
          </g>
        </g>
      </g>
    </g>
  </g>
</svg>
