<svg width="106" height="119" viewBox="0 0 106 119" fill="none" xmlns="http://www.w3.org/2000/svg">
<path d="M106 76.7639C106 81.157 104.862 85.4751 102.698 89.298C100.534 93.1208 97.4161 96.318 93.6491 98.5783L66.0886 115.114C62.1348 117.486 57.6107 118.739 52.9999 118.739C48.3891 118.739 43.865 117.486 39.9113 115.114L12.3508 98.5783C8.58381 96.318 5.46632 93.1208 3.3019 89.298C1.13747 85.4751 -9.91821e-05 81.157 -6.10352e-05 76.7639V41.9754C-9.91821e-05 37.5824 1.13747 33.2642 3.3019 29.4413C5.46632 25.6185 8.58381 22.4213 12.3508 20.161L39.9113 3.62537C43.865 1.25312 48.3891 0 52.9999 0C57.6107 0 62.1348 1.25312 66.0886 3.62537L93.6491 20.161C97.4161 22.4213 100.534 25.6185 102.698 29.4413C104.862 33.2642 106 37.5824 106 41.9754V76.7639Z" fill="#333B41"/>
<path opacity="0.25" d="M64.091 64.4315H44.7258L40.3313 76.3846H36.552L52.6946 33.7284H56.1223L72.2649 76.3846H68.5149L64.091 64.4315ZM45.8391 61.3553H62.9485L54.3938 38.1229L45.8391 61.3553Z" fill="white"/>
</svg>
