<svg xmlns="http://www.w3.org/2000/svg" width="40" height="40" viewBox="0 0 40 40">
  <g id="Group_271" data-name="Group 271" transform="translate(-28 -315)">
    <rect id="Rectangle_129" data-name="Rectangle 129" width="40" height="40" transform="translate(28 315)" fill="none"/>
    <g id="business-affiliate-network" transform="translate(35.133 322.702)">
      <g id="Group_343" data-name="Group 343" transform="translate(3.054 2.578)">
        <g id="profile" transform="translate(0)">
          <circle id="Ellipse_39" data-name="Ellipse 39" cx="4.183" cy="4.183" r="4.183" transform="translate(3.346)" fill="#3b4851"/>
          <path id="Path_9428" data-name="Path 9428" d="M9.649,15.136a2.1,2.1,0,0,1,.17-2.342,2.1,2.1,0,0,1-.17-2.342l.677-1.171a2.1,2.1,0,0,1,1.812-1.046,2.13,2.13,0,0,1,.3.022,2.172,2.172,0,0,1,.1-.2,3.946,3.946,0,0,0-1.452-.284H3.974A3.978,3.978,0,0,0,0,11.748v2.928a.628.628,0,0,0,.627.627H9.745Z" transform="translate(0 2.264)" fill="#3b4851"/>
          <path id="Path_9429" data-name="Path 9429" d="M15.665,13a3.04,3.04,0,0,0,.039-.392,3.179,3.179,0,0,0-.039-.392l.754-.571a.419.419,0,0,0,.11-.543l-.677-1.171a.418.418,0,0,0-.525-.177l-.868.366a3.108,3.108,0,0,0-.685-.407l-.115-.921a.419.419,0,0,0-.415-.366H11.892a.418.418,0,0,0-.415.366l-.115.921a3.121,3.121,0,0,0-.685.407l-.868-.366a.418.418,0,0,0-.525.177L8.607,11.1a.419.419,0,0,0,.11.543l.754.571a3.04,3.04,0,0,0-.039.392A3.179,3.179,0,0,0,9.471,13l-.754.571a.419.419,0,0,0-.11.543l.677,1.172a.418.418,0,0,0,.525.177l.868-.366a3.108,3.108,0,0,0,.685.407l.115.921a.417.417,0,0,0,.414.366h1.353a.418.418,0,0,0,.415-.366l.115-.921a3.121,3.121,0,0,0,.685-.407l.868.366a.418.418,0,0,0,.525-.177l.677-1.172a.419.419,0,0,0-.11-.543Zm-3.1,1.281a1.673,1.673,0,1,1,1.673-1.673A1.673,1.673,0,0,1,12.568,14.278Z" transform="translate(2.49 2.453)" fill="#3b4851"/>
        </g>
      </g>
    </g>
  </g>
</svg>
