<svg xmlns="http://www.w3.org/2000/svg" width="16.068" height="10.956" viewBox="0 0 16.068 10.956">
  <g id="visibility" transform="translate(0 -74.667)">
    <g id="Group_314" data-name="Group 314" transform="translate(0 74.667)">
      <g id="Group_313" data-name="Group 313">
        <path id="Path_9415" data-name="Path 9415" d="M172.858,170.667a2.191,2.191,0,1,0,2.191,2.191A2.193,2.193,0,0,0,172.858,170.667Z" transform="translate(-164.824 -167.38)" fill="#b3b5b7"/>
        <path id="Path_9416" data-name="Path 9416" d="M8.034,74.667A8.638,8.638,0,0,0,0,80.145a8.631,8.631,0,0,0,16.068,0A8.634,8.634,0,0,0,8.034,74.667Zm0,9.13a3.652,3.652,0,1,1,3.652-3.652A3.653,3.653,0,0,1,8.034,83.8Z" transform="translate(0 -74.667)" fill="#b3b5b7"/>
      </g>
    </g>
  </g>
</svg>
